<svg width="12" height="12" viewBox="0 0 12 12" fill="none" xmlns="http://www.w3.org/2000/svg">
<path d="M7.842 5.55L7.302 6.102C6.87 6.534 6.6 6.9 6.6 7.8H5.4V7.5C5.4 6.834 5.67 6.234 6.102 5.802L6.846 5.046C7.068 4.83 7.2 4.53 7.2 4.2C7.2 3.534 6.66 3 6 3C5.68174 3 5.37652 3.12643 5.15147 3.35147C4.92643 3.57652 4.8 3.88174 4.8 4.2H3.6C3.6 3.56348 3.85286 2.95303 4.30294 2.50294C4.75303 2.05286 5.36348 1.8 6 1.8C6.63652 1.8 7.24697 2.05286 7.69706 2.50294C8.14714 2.95303 8.4 3.56348 8.4 4.2C8.4 4.728 8.184 5.202 7.842 5.55ZM6.6 10.2H5.4V9H6.6M6 0C5.21207 0 4.43185 0.155195 3.7039 0.456723C2.97595 0.758251 2.31451 1.20021 1.75736 1.75736C0.632141 2.88258 0 4.4087 0 6C0 7.5913 0.632141 9.11742 1.75736 10.2426C2.31451 10.7998 2.97595 11.2417 3.7039 11.5433C4.43185 11.8448 5.21207 12 6 12C7.5913 12 9.11742 11.3679 10.2426 10.2426C11.3679 9.11742 12 7.5913 12 6C12 2.682 9.3 0 6 0Z" fill="#6D51B4"/>
</svg>
