<svg width="19" height="17" viewBox="0 0 19 17" fill="none" xmlns="http://www.w3.org/2000/svg">
<path d="M15.9436 2.02128C15.1611 1.36475 14.1561 1.00395 13.1144 1.00395C11.9112 1.00395 10.7465 1.48911 9.91947 2.33653C9.77081 2.48909 9.63141 2.65286 9.50058 2.83073C8.48776 1.46381 6.79545 0.762449 5.12168 1.07264C3.73275 1.32824 2.64079 2.10226 1.87824 3.37157C0.802316 5.16365 0.714261 6.8921 1.61799 8.5092C2.10105 9.37433 2.72778 10.2174 3.53418 11.0865C5.01116 12.6787 6.75944 14.1898 9.03642 15.8406C9.18187 15.9465 9.33766 16 9.50022 16C9.75049 16 9.91947 15.8717 10.0032 15.8088C12.0578 14.3211 13.6716 12.9498 15.0827 11.4911C15.8705 10.6769 16.7646 9.67621 17.4185 8.42642C17.6987 7.89244 18.0181 7.17373 17.9992 6.35271C17.9571 4.58594 17.2659 3.12863 15.9436 2.02128ZM16.3482 7.85015C15.7661 8.96147 14.9447 9.87866 14.2174 10.6299C12.9126 11.9791 11.4207 13.256 9.49808 14.6638C7.40578 13.1288 5.7862 11.7192 4.41723 10.2427C3.67821 9.44628 3.10745 8.68093 2.67216 7.90184C1.98305 6.66904 2.05969 5.4319 2.91387 4.01039C3.48855 3.05307 4.30422 2.47102 5.33879 2.28049C5.537 2.24362 5.73771 2.22554 5.93557 2.22554C7.16193 2.22554 8.24819 2.91244 8.86173 4.10511L8.96583 4.30431C9.07278 4.50785 9.29309 4.62354 9.51056 4.62896C9.73836 4.62462 9.94407 4.49266 10.0442 4.28515C10.2596 3.83975 10.4945 3.49413 10.7811 3.19985C11.3822 2.5849 12.2324 2.23169 13.1144 2.23169C13.8748 2.23169 14.6053 2.49307 15.1718 2.96811C16.2256 3.85059 16.7539 4.96771 16.7878 6.38055C16.7996 6.91379 16.5725 7.4221 16.3482 7.85015Z" fill="#6D51B4" stroke="#6D51B4" stroke-width="0.4"/>
</svg>
