<svg width="13" height="12" viewBox="0 0 13 12" fill="none" xmlns="http://www.w3.org/2000/svg">
<path d="M10.072 11.3689C9.90331 11.3689 9.73465 11.3259 9.57223 11.246L7.15461 9.99221C7.11088 9.96762 7.06091 9.96148 7.01718 9.96148C6.97345 9.96148 6.92347 9.97377 6.87974 9.99221L4.46214 11.246C4.30596 11.3259 4.13104 11.3689 3.96237 11.3689C3.74373 11.3689 3.52508 11.3013 3.33142 11.16C2.99408 10.9141 2.83165 10.5269 2.90662 10.1213L3.36266 7.48455C3.37515 7.3985 3.35017 7.30017 3.2752 7.22642L1.32612 5.35184C1.03251 5.06297 0.932555 4.65731 1.045 4.2701C1.17619 3.88289 1.50104 3.60632 1.9071 3.55101L4.60582 3.16379C4.70577 3.1515 4.78074 3.09003 4.82447 3.00399L6.0239 0.594649C6.21131 0.219732 6.56739 0.00463867 6.99219 0.00463867C7.41699 0.00463867 7.76683 0.219732 7.96049 0.594649L9.15992 3.00399C9.20365 3.09003 9.27861 3.14535 9.37856 3.16379L12.0773 3.55101C12.4896 3.60632 12.8082 3.88289 12.9394 4.2701C13.0706 4.65731 12.9706 5.06297 12.6583 5.35184L10.7529 7.22642C10.678 7.30017 10.653 7.38621 10.6655 7.48455L11.1215 10.1213C11.1965 10.5269 11.034 10.9141 10.6967 11.16C10.503 11.3013 10.2844 11.3689 10.0657 11.3689L10.072 11.3689ZM9.84085 9.99221L9.44103 7.68738L9.44103 7.66893L9.44103 7.65051C9.37232 7.16496 9.53474 6.6917 9.88458 6.34752L11.5525 4.70646L9.2099 4.36842C8.70389 4.29467 8.28533 3.99353 8.05419 3.54485L8.05419 3.5387L7.00469 1.43671L5.95518 3.5387L5.95518 3.54485C5.72404 3.99967 5.30549 4.29467 4.79948 4.36842L2.45684 4.70646L4.15603 6.34137L4.15603 6.35367C4.51211 6.704 4.67454 7.20183 4.59333 7.68738L4.19352 9.99221L6.29253 8.90432L6.30501 8.90432L6.31751 8.89201C6.53616 8.78753 6.77354 8.73224 7.01718 8.73224C7.26081 8.73224 7.49821 8.78753 7.71685 8.89201L7.72934 8.89201L7.74184 8.90432L9.84085 9.99221Z" fill="#7F60CC"/>
</svg>
