<svg width="13" height="12" viewBox="0 0 13 12" fill="none" xmlns="http://www.w3.org/2000/svg">
<path d="M9.07638 11.3689C8.90771 11.3689 8.73904 11.3259 8.57662 11.246L6.15901 9.99221C6.11528 9.96762 6.0653 9.96148 6.02157 9.96148C5.97784 9.96148 5.92787 9.97377 5.88414 9.99221L3.46653 11.246C3.31036 11.3259 3.13544 11.3689 2.96677 11.3689C2.74812 11.3689 2.52948 11.3013 2.33582 11.16C1.99848 10.9141 1.83605 10.5269 1.91101 10.1213L2.36706 7.48455C2.37955 7.3985 2.35456 7.30017 2.2796 7.22642L0.330512 5.35184C0.0369007 5.06297 -0.0630501 4.65731 0.0493967 4.2701C0.180585 3.88289 0.505434 3.60632 0.911492 3.55101L3.61021 3.16379C3.71016 3.1515 3.78513 3.09003 3.82886 3.00399L5.02829 0.594649C5.2157 0.219732 5.57179 0.00463867 5.99659 0.00463867C6.42139 0.00463867 6.77122 0.219732 6.96488 0.594649L8.16431 3.00399C8.20804 3.09003 8.283 3.14535 8.38295 3.16379L11.0817 3.55101C11.494 3.60632 11.8126 3.88289 11.9438 4.2701C12.075 4.65731 11.975 5.06297 11.6627 5.35184L9.75731 7.22642C9.68235 7.30017 9.65736 7.38621 9.66985 7.48455L10.1259 10.1213C10.2008 10.5269 10.0384 10.9141 9.70108 11.16C9.50742 11.3013 9.28878 11.3689 9.07013 11.3689L9.07638 11.3689ZM8.84524 9.99221L8.44543 7.68738L8.44543 7.66893L8.44543 7.65051C8.37671 7.16496 8.53914 6.6917 8.88897 6.34752L10.5569 4.70646L8.21429 4.36842C7.70828 4.29467 7.28972 3.99353 7.05858 3.54485L7.05858 3.5387L6.00908 1.43671L4.95958 3.5387L4.95958 3.54485C4.72844 3.99967 4.30989 4.29467 3.80388 4.36842L1.46124 4.70646L3.16042 6.34137L3.16042 6.35367C3.51651 6.704 3.67894 7.20183 3.59772 7.68738L3.19791 9.99221L5.29692 8.90432L5.30941 8.90432L5.32191 8.89201C5.54055 8.78753 5.77794 8.73224 6.02157 8.73224C6.26521 8.73224 6.5026 8.78753 6.72125 8.89201L6.73373 8.89201L6.74623 8.90432L8.84524 9.99221Z" fill="#6D51B4"/>
<path d="M6.00004 0L7.50004 4L11.7064 4.1459L9 7L9.52675 10.8541L6 9L2.47333 10.8541L3.5 7L0.293701 4.1459L4.5 4L6.00004 0Z" fill="#6D51B4"/>
</svg>
