<svg width="13" height="16" viewBox="0 0 13 16" fill="none" xmlns="http://www.w3.org/2000/svg">
<path d="M0.929033 16C0.769528 15.9995 0.61284 15.9597 0.474071 15.8844C0.33065 15.8073 0.211225 15.695 0.128021 15.5591C0.0448171 15.4232 0.000821833 15.2686 0.000538311 15.1111V2.07111C-0.0120134 1.53806 0.195362 1.02175 0.577722 0.634065C0.960081 0.246385 1.48662 0.0185729 2.04323 0H10.9568C11.5134 0.0185729 12.0399 0.246385 12.4223 0.634065C12.8046 1.02175 13.012 1.53806 12.9995 2.07111V15.1111C12.9985 15.2662 12.9551 15.4184 12.8737 15.5525C12.7922 15.6866 12.6755 15.798 12.5352 15.8756C12.3941 15.9536 12.234 15.9946 12.071 15.9946C11.908 15.9946 11.7479 15.9536 11.6067 15.8756L6.34216 13.0222L1.39328 15.8667C1.25359 15.9497 1.09338 15.9957 0.929033 16Z" fill="#6D51B4"/>
</svg>
