<svg width="25" height="24" viewBox="0 0 25 24" fill="none" xmlns="http://www.w3.org/2000/svg">
<g id="find_in_page" clip-path="url(#clip0_210_7519)">
<path id="Vector" d="M14.5 2H6.5C5.4 2 4.51 2.9 4.51 4L4.5 20C4.5 21.1 5.39 22 6.49 22H18.5C19.6 22 20.5 21.1 20.5 20V8L14.5 2ZM6.5 4H13.5L18.5 9V17.58L16.66 15.74C17.94 13.8 17.73 11.17 16.02 9.46C15.05 8.49 13.78 8 12.5 8C11.22 8 9.95 8.49 8.97 9.46C7.02 11.41 7.02 14.57 8.97 16.51C9.94 17.48 11.22 17.97 12.5 17.97C13.46 17.97 14.42 17.69 15.25 17.14L18.1 20H6.5V4ZM14.61 15.1C14.05 15.66 13.3 15.98 12.5 15.98C11.7 15.98 10.95 15.67 10.39 15.1C9.83 14.54 9.51 13.79 9.51 12.99C9.51 12.19 9.82 11.44 10.39 10.88C10.95 10.31 11.7 10 12.5 10C13.3 10 14.05 10.31 14.61 10.88C15.17 11.44 15.49 12.19 15.49 12.99C15.49 13.79 15.18 14.54 14.61 15.1Z" fill="#BDBDBD"/>
</g>
<defs>
<clipPath id="clip0_210_7519">
<rect width="24" height="24" fill="white" transform="translate(0.5)"/>
</clipPath>
</defs>
</svg>
