<svg width="19" height="19" viewBox="0 0 19 19" fill="none" xmlns="http://www.w3.org/2000/svg">
<g clip-path="url(#clip0_825_3672)">
<path d="M8.70837 5.54159H10.2917V7.12492H8.70837V5.54159ZM8.70837 8.70825H10.2917V13.4583H8.70837V8.70825ZM9.50004 1.58325C5.13004 1.58325 1.58337 5.12992 1.58337 9.49992C1.58337 13.8699 5.13004 17.4166 9.50004 17.4166C13.87 17.4166 17.4167 13.8699 17.4167 9.49992C17.4167 5.12992 13.87 1.58325 9.50004 1.58325ZM9.50004 15.8333C6.00879 15.8333 3.16671 12.9912 3.16671 9.49992C3.16671 6.00867 6.00879 3.16659 9.50004 3.16659C12.9913 3.16659 15.8334 6.00867 15.8334 9.49992C15.8334 12.9912 12.9913 15.8333 9.50004 15.8333Z" fill="#6D51B4"/>
</g>
<defs>
<clipPath id="clip0_825_3672">
<rect width="19" height="19" fill="white"/>
</clipPath>
</defs>
</svg>
