<svg width="4" height="18" viewBox="0 0 4 18" fill="none" xmlns="http://www.w3.org/2000/svg">
<path d="M2 10.6523C3.1044 10.6523 4 9.83238 4 8.82128C4 7.81018 3.1044 6.99023 2 6.99023C0.8956 6.99023 0 7.81018 0 8.82128C0 9.83238 0.8956 10.6523 2 10.6523Z" fill="black"/>
<path d="M2 17.2597C3.1044 17.2597 4 16.4398 4 15.4287C4 14.4176 3.1044 13.5977 2 13.5977C0.8956 13.5977 0 14.4176 0 15.4287C0 16.4398 0.8956 17.2597 2 17.2597Z" fill="black"/>
<path d="M2 4.04539C3.1044 4.04539 4 3.2256 4 2.21435C4 1.2031 3.1044 0.383301 2 0.383301C0.8956 0.383301 0 1.2031 0 2.21435C0 3.2256 0.8956 4.04539 2 4.04539Z" fill="black"/>
</svg>
