<svg width="3" height="13" viewBox="0 0 3 13" fill="none" xmlns="http://www.w3.org/2000/svg">
<path d="M1.5 7.70897C2.3283 7.70897 3 7.09401 3 6.33569C3 5.57736 2.3283 4.9624 1.5 4.9624C0.6717 4.9624 0 5.57736 0 6.33569C0 7.09401 0.6717 7.70897 1.5 7.70897Z" fill="#1C1C1C"/>
<path d="M1.5 12.6572C2.3283 12.6572 3 12.0423 3 11.2839C3 10.5256 2.3283 9.91064 1.5 9.91064C0.6717 9.91064 0 10.5256 0 11.2839C0 12.0423 0.6717 12.6572 1.5 12.6572Z" fill="#1C1C1C"/>
<path d="M1.5 2.74657C2.3283 2.74657 3 2.13172 3 1.37328C3 0.614847 2.3283 0 1.5 0C0.6717 0 0 0.614847 0 1.37328C0 2.13172 0.6717 2.74657 1.5 2.74657Z" fill="#1C1C1C"/>
</svg>
