<?xml version="1.0" standalone="no"?>
<!DOCTYPE svg PUBLIC "-//W3C//DTD SVG 20010904//EN"
 "http://www.w3.org/TR/2001/REC-SVG-20010904/DTD/svg10.dtd">
<svg version="1.0" xmlns="http://www.w3.org/2000/svg"
 width="293.000000pt" height="374.000000pt" viewBox="0 0 293.000000 374.000000"
 preserveAspectRatio="xMidYMid meet">

<g transform="translate(0.000000,374.000000) scale(0.100000,-0.100000)"
fill="#000000" stroke="none">
<path d="M1288 3710 c-43 -11 -96 -31 -118 -46 l-40 -27 0 -368 0 -367 25 -30
25 -29 -62 -7 c-79 -9 -113 -27 -127 -67 -7 -20 -11 -115 -11 -244 0 -203 1
-213 23 -245 34 -51 75 -70 181 -83 l95 -12 -25 -33 c-14 -18 -51 -50 -83 -71
l-57 -39 4 34 c6 46 -16 49 -168 25 -198 -32 -299 -57 -388 -94 -108 -46 -165
-84 -235 -154 -110 -112 -170 -240 -211 -449 -56 -288 -56 -434 0 -732 45
-241 118 -398 234 -505 88 -82 161 -111 375 -149 97 -18 999 -18 1225 0 320
25 384 40 501 118 164 109 281 313 347 604 22 99 26 138 26 280 0 141 -4 184
-28 298 -48 233 -110 372 -213 478 -97 99 -197 158 -339 199 -49 14 -91 30
-94 35 -13 22 -85 38 -235 55 -205 22 -255 36 -291 78 l-27 32 76 7 c137 13
191 35 227 93 17 28 20 49 20 161 -1 169 -22 365 -43 397 -11 18 -29 26 -61
31 l-46 7 -2 377 -3 376 -30 17 c-99 57 -318 81 -447 49z m277 -101 l40 -12
-40 -15 c-56 -21 -339 -30 -333 -11 13 40 235 65 333 38z m105 -389 l0 -290
-132 0 c-72 0 -171 5 -220 11 l-88 12 -2 198 c-1 110 -2 223 -3 252 l0 52 155
6 c120 4 167 10 210 26 30 11 61 21 68 22 9 1 12 -63 12 -289z m134 -487 c15
-129 27 -327 21 -359 -8 -44 -46 -63 -147 -71 -63 -5 -70 -4 -84 16 -25 36
-87 61 -150 61 -77 0 -128 -17 -172 -57 -35 -32 -40 -34 -87 -28 -27 4 -61 12
-75 19 l-25 11 -3 201 -2 200 77 11 76 11 29 -29 c26 -25 37 -29 86 -28 33 0
127 19 222 43 91 24 179 44 197 45 30 1 31 -1 37 -46z m-310 -462 c8 -13 -43
-21 -93 -14 -28 4 -38 9 -29 14 17 11 115 11 122 0z m25 -134 c12 -18 10 -18
-21 -11 -53 12 -78 8 -96 -17 -42 -61 -85 -99 -118 -105 -46 -8 -52 0 -17 21
15 9 48 42 72 73 l44 57 62 1 c51 1 64 -3 74 -19z m-453 -136 c-17 -17 -51
-35 -89 -46 -84 -25 -182 -83 -242 -143 -131 -131 -246 -408 -276 -665 -14
-123 -6 -376 14 -467 40 -173 124 -339 197 -388 29 -20 43 -23 81 -18 459 60
880 58 1239 -6 151 -27 232 -33 258 -19 29 15 87 138 114 241 20 74 23 109 23
280 -1 177 -3 205 -27 307 -50 206 -111 354 -199 485 -22 31 -39 60 -39 64 0
14 225 -5 290 -25 124 -39 187 -96 247 -228 26 -56 26 -59 20 -222 -5 -118
-14 -201 -32 -286 -32 -154 -32 -172 0 -187 14 -6 25 -17 25 -25 0 -27 -80
-214 -116 -270 -51 -80 -132 -156 -206 -192 -134 -66 -364 -85 -1028 -85 -523
0 -630 8 -774 55 -162 53 -269 221 -332 519 -49 233 -51 409 -8 660 58 335
184 505 439 590 93 31 324 80 380 80 16 0 37 5 45 10 26 17 25 11 -4 -19z
m620 -43 c49 -56 48 -56 -60 -24 -110 33 -111 42 -5 45 36 1 50 -4 65 -21z
m319 -9 c106 -17 278 -70 350 -107 67 -35 225 -175 213 -188 -4 -3 -25 4 -49
16 -73 38 -208 60 -364 60 l-141 0 -60 63 c-33 34 -80 88 -103 120 l-43 59 68
-7 c38 -3 96 -11 129 -16z m-479 -89 c106 -26 279 -96 326 -131 21 -16 19 -17
-58 -25 -131 -15 -501 -11 -564 5 -126 32 -141 62 -62 131 26 23 56 46 67 51
32 13 170 -2 291 -31z m-509 -55 c-15 -49 5 -108 47 -140 77 -58 332 -91 580
-73 72 5 165 10 206 11 l74 2 37 -95 c89 -225 101 -385 41 -514 -73 -156 -279
-307 -524 -384 -147 -46 -199 -54 -353 -50 -124 3 -146 6 -190 28 -78 38 -146
112 -177 195 -40 102 -47 147 -48 272 0 196 47 354 181 603 13 23 131 180 135
180 1 0 -3 -16 -9 -35z m-207 -87 c-95 -163 -141 -277 -174 -437 -35 -164 -35
-301 -2 -435 46 -181 127 -285 274 -354 70 -33 86 -36 185 -40 133 -5 238 10
386 55 222 67 463 212 537 323 13 19 36 53 51 75 50 74 73 159 73 270 0 96 -5
125 -54 295 -14 49 53 -68 93 -163 64 -151 101 -315 108 -482 6 -163 -4 -250
-48 -382 l-31 -93 -44 0 c-24 0 -99 9 -166 20 -342 55 -681 65 -1031 30 -111
-11 -212 -22 -224 -25 -48 -11 -134 165 -174 358 -18 89 -20 124 -15 272 3 96
12 200 21 238 33 147 113 344 171 424 28 39 85 103 91 103 2 0 -10 -24 -27
-52z"/>
</g>
</svg>
